<svg fill="none" height="32" viewBox="0 0 32 32" width="32" xmlns="http://www.w3.org/2000/svg"><path d="m31.4972 19.8939c-2.1369 8.5715-10.8185 13.788-19.391 11.6505-8.56893-2.1369-13.78538-10.819-11.647531-19.3898 2.135981-8.57246 10.817531-13.7893 19.387431-11.652388 8.5719 2.136918 13.788 10.819988 11.6509 19.391888l.0001-.0002z" fill="#f7931a"/><path d="m23.0554 13.7204c.3184-2.1292-1.3026-3.2738-3.5193-4.03732l.7191-2.88426-1.7558-.43748-.7 2.80832c-.4616-.11512-.9356-.2236-1.4067-.33113l.7051-2.82685-1.7546-.43749-.7195 2.88332c-.382-.08697-.7571-.17292-1.1211-.26348l.002-.00907-2.4212-.60462-.467 1.87524s1.3026.29859 1.2751.31697c.711.17745.8396.64805.8182 1.02115l-.8191 3.2858c.049.0125.1125.0305.1825.0586-.0585-.0145-.1209-.0304-.1855-.0459l-1.1482 4.603c-.0869.216-.3074.5402-.8045.4171.01759.0255-1.2761-.3185-1.2761-.3185l-.87169 2.0098 2.28479.5696c.4251.1066.8416.2181 1.2518.323l-.7266 2.9173 1.7538.4375.7195-2.8864c.479.1301.944.25 1.3991.3631l-.717 2.8728 1.7558.4375.7264-2.9119c2.9939.5666 5.2451.3382 6.1927-2.3698.7635-2.1803-.038-3.4378-1.6131-4.2579 1.1472-.2646 2.0113-1.0191 2.2417-2.5778l-.0006-.0003zm-4.0115 5.6251c-.5426 2.1802-4.2134 1.0017-5.4036.7061l.9642-3.8649c1.19.2971 5.0065.885 4.4395 3.1588zm.543-5.6567c-.495 1.9832-3.5503.9756-4.5414.7286l.8742-3.5053c.9911.2471 4.1828.7082 3.6674 2.7767z" fill="#fff"/></svg>