<svg fill="none" height="12" viewBox="0 0 8 12" width="8" xmlns="http://www.w3.org/2000/svg"><path d="m2.25978 3.83333c0 .63334.48667 1.04 2 1.43334 1.51333.39333 3.13333 1.04 3.13333 2.93333 0 1.36667-1.03333 2.12-2.33333 2.3667v1.4333h-2v-1.4467c-1.28-.2733-2.373335-1.0933-2.453335-2.5533h1.466665c.07334.78667.61334 1.4 1.98667 1.4 1.47333 0 1.8-.73333 1.8-1.19333 0-.62-.33333-1.20667-2-1.60667-1.86-.44667-3.133335-1.21333-3.133335-2.75333 0-1.28667 1.040005-2.12667 2.333335-2.40667v-1.44h2v1.46c1.39333.34 2.09333 1.39333 2.14 2.54h-1.47333c-.04-.83333-.48-1.4-1.66667-1.4-1.12667 0-1.8.50667-1.8 1.23333z" fill="#fff"/></svg>