<svg fill="none" height="14" viewBox="0 0 14 14" width="14" xmlns="http://www.w3.org/2000/svg"><path d="m1.66634 3.00016h-1.333332v9.33334c0 .7333.6 1.3333 1.333332 1.3333h9.33336v-1.3333h-9.33336zm10.66666-2.666664h-7.99999c-.73334 0-1.33334.6-1.33334 1.333334v8c0 .73337.6 1.33337 1.33334 1.33337h7.99999c.7333 0 1.3333-.6 1.3333-1.33337v-8c0-.733334-.6-1.333334-1.3333-1.333334zm0 9.333334h-7.99999v-8h7.99999zm-4.32666-3.89333c.27334-.48667.78667-.77334 1.08667-1.2.32-.45334.14-1.29334-.76-1.29334-.58667 0-.88.44667-1 .82l-.91334-.38c.25334-.74666.92667-1.38666 1.90667-1.38666.82 0 1.38667.37333 1.67333.84.24663.4.38663 1.15333.00663 1.71333-.41996.62-.81996.80667-1.03996 1.20667-.08667.16-.12.26666-.12.78666h-1.01333c.00666-.27333-.04-.72.17333-1.10666zm-.37333 2.52666c0-.39333.31333-.69333.7-.69333.39333 0 .69333.3.69333.69333 0 .38667-.29333.7-.69333.7-.38667 0-.7-.31333-.7-.7z" fill="#fff"/></svg>