<svg fill="none" height="246" viewBox="0 0 260 246" width="260" xmlns="http://www.w3.org/2000/svg" xmlns:xlink="http://www.w3.org/1999/xlink"><filter id="a" color-interpolation-filters="sRGB" filterUnits="userSpaceOnUse" height="682" width="682" x="-231" y="-191"><feFlood flood-opacity="0" result="BackgroundImageFix"/><feBlend in="SourceGraphic" in2="BackgroundImageFix" mode="normal" result="shape"/><feGaussianBlur result="effect1_foregroundBlur_244_3251" stdDeviation="128"/></filter><linearGradient id="b"><stop offset=".15" stop-color="#2aabee"/><stop offset="1" stop-color="#0ccfcf"/></linearGradient><linearGradient id="c" gradientUnits="userSpaceOnUse" x1="25.1549" x2="194.845" xlink:href="#b" y1="144.87" y2="155.13"/><linearGradient id="d" gradientUnits="userSpaceOnUse" x1="38.1668" x2="211.874" xlink:href="#b" y1="179.082" y2="219.975"/><linearGradient id="e" gradientUnits="userSpaceOnUse" x1="97.5691" x2="161.398" xlink:href="#b" y1="147.992" y2="152.117"/><linearGradient id="f" gradientUnits="userSpaceOnUse" x1="129.318" x2="129.318" y1="120.005" y2="151.963"><stop offset="0" stop-color="#952cff"/><stop offset="1" stop-color="#952cff" stop-opacity=".2"/></linearGradient><linearGradient id="g" gradientUnits="userSpaceOnUse" x1="81.0884" x2="177.696" xlink:href="#b" y1="104.153" y2="111.573"/><linearGradient id="h" gradientUnits="userSpaceOnUse" x1="105.386" x2="123.183" y1="96.1384" y2="139.355"><stop offset="0" stop-color="#fff"/><stop offset="1" stop-color="#fff" stop-opacity="0"/></linearGradient><linearGradient id="i"><stop offset="0" stop-color="#fff"/><stop offset="1" stop-color="#fff" stop-opacity=".5"/></linearGradient><linearGradient id="j" gradientUnits="userSpaceOnUse" x1="76" x2="76" xlink:href="#i" y1="152" y2="176"/><linearGradient id="k" gradientUnits="userSpaceOnUse" x1="69.0219" x2="92.9781" xlink:href="#b" y1="89.2758" y2="90.7242"/><linearGradient id="l" gradientUnits="userSpaceOnUse" x1="171" x2="171" xlink:href="#i" y1="134" y2="150"/><g filter="url(#a)" opacity=".7"><circle cx="110" cy="150" fill="url(#c)" r="85"/></g><ellipse cx="129.5" cy="180.5" fill="url(#d)" opacity=".5" rx="91.5" ry="23.5"/><path d="m97.9299 173.958 24.5191-49.656c1.34-2.713 4.092-4.43 7.104-4.43h30.943c.823 0 1.288.95.786 1.606l-42.197 55.134c-1.501 1.962-3.824 3.111-6.285 3.111h-11.318c-2.9438 0-4.8618-3.112-3.5521-5.765z" fill="url(#e)"/><path clip-rule="evenodd" d="m148.743 120.005-23.161 28.959c-1.516 1.896-3.812 2.999-6.239 2.999h-9.449l13.671-27.522c1.35-2.717 4.122-4.436 7.156-4.436z" fill="url(#f)" fill-opacity=".44" fill-rule="evenodd"/><path d="m81.4536 138.776 34.1954-66.1472c1.382-2.6729 4.143-4.3522 7.156-4.3522h54.186c.844 0 1.314.9744.787 1.6323l-57.461 71.7121c-1.529 1.907-3.843 3.017-6.289 3.017h-28.9961c-3.0157 0-4.9611-3.187-3.5783-5.862z" fill="url(#g)"/><path clip-rule="evenodd" d="m170.894 68.2766-51.754 64.7084c-1.516 1.896-3.812 3-6.239 3h-28.7676c-.405 0-.7906-.058-1.1512-.165l32.6668-63.1912c1.382-2.6729 4.143-4.3522 7.156-4.3522z" fill="url(#h)" fill-opacity=".5" fill-rule="evenodd"/><path d="m76 152 2.1213 9.879 9.8787 2.121-9.8787 2.121-2.1213 9.879-2.1213-9.879-9.8787-2.121 9.8787-2.121z" fill="url(#j)"/><path d="m81 78 2.1213 9.8787 9.8787 2.1213-9.8787 2.1213-2.1213 9.8787-2.1213-9.8787-9.8787-2.1213 9.8787-2.1213z" fill="url(#k)"/><path d="m171 134 1.414 6.586 6.586 1.414-6.586 1.414-1.414 6.586-1.414-6.586-6.586-1.414 6.586-1.414z" fill="url(#l)"/></svg>