<svg fill="none" height="12" viewBox="0 0 18 12" width="18" xmlns="http://www.w3.org/2000/svg" xmlns:xlink="http://www.w3.org/1999/xlink"><linearGradient id="a" gradientUnits="userSpaceOnUse" x1=".689863" x2="17.8866" y1="6.00663" y2="7.67052"><stop offset=".15" stop-color="#2aabee"/><stop offset="1" stop-color="#0ccfcf"/></linearGradient><path clip-rule="evenodd" d="m14.2947 5.26371-2.4795-2.47449v-.01081c-.433-.4322-.433-1.11293 0-1.53433.4223-.43221 1.1044-.43221 1.5375 0l4.3307 4.32207c.2552.24814.3562.59887.3029.93058-.0414.2892-.1986.54245-.4229.71101l-4.2223 4.21376c-.2057.1945-.4872.3134-.7687.3134l.0108.0119c-.2923 0-.5738-.1189-.7687-.3134-.4331-.4214-.4331-1.1129-.0108-1.53433v-.0108l2.4684-2.46352h-12.51533c-.60631 0-1.082698-.48623-1.082698-1.08052 0-.60509.476388-1.08052 1.082698-1.08052z" fill="url(#a)" fill-rule="evenodd"/></svg>