<svg fill="none" height="18" viewBox="0 0 12 18" width="12" xmlns="http://www.w3.org/2000/svg" xmlns:xlink="http://www.w3.org/1999/xlink"><linearGradient id="a" gradientUnits="userSpaceOnUse" x1="6.66378" x2="4.99989" y1=".686201" y2="17.8829"><stop offset=".15" stop-color="#2aabee"/><stop offset="1" stop-color="#0ccfcf"/></linearGradient><path clip-rule="evenodd" d="m7.4067 14.291 2.47449-2.4794h.01081c.4322-.4331 1.1129-.4331 1.5343 0 .4322.4222.4322 1.1043 0 1.5374l-4.32204 4.3308c-.24816.2552-.59894.3561-.93069.3029-.28916-.0415-.54236-.1987-.71089-.423l-4.21379-4.2223c-.1945-.2057-.313356-.4872-.313356-.7687l-.011885.0108c0-.2923.118861-.5738.313351-.7687.4214-.433 1.11293-.433 1.53434-.0108h.0108l2.46352 2.4685v-12.5154c0-.6063.48623-1.08269 1.08052-1.08269.60509 0 1.08052.47639 1.08052 1.08269z" fill="url(#a)" fill-rule="evenodd"/></svg>