<svg fill="none" height="246" viewBox="0 0 260 246" width="260" xmlns="http://www.w3.org/2000/svg" xmlns:xlink="http://www.w3.org/1999/xlink"><filter id="a" color-interpolation-filters="sRGB" filterUnits="userSpaceOnUse" height="682" width="682" x="-231" y="-191"><feFlood flood-opacity="0" result="BackgroundImageFix"/><feBlend in="SourceGraphic" in2="BackgroundImageFix" mode="normal" result="shape"/><feGaussianBlur result="effect1_foregroundBlur_244_3322" stdDeviation="128"/></filter><linearGradient id="b"><stop offset=".15" stop-color="#2aabee"/><stop offset="1" stop-color="#0ccfcf"/></linearGradient><linearGradient id="c" gradientUnits="userSpaceOnUse" x1="25.1549" x2="194.845" xlink:href="#b" y1="144.87" y2="155.13"/><linearGradient id="d" gradientUnits="userSpaceOnUse" x1="38.1668" x2="211.874" xlink:href="#b" y1="179.082" y2="219.975"/><linearGradient id="e" gradientUnits="userSpaceOnUse" x1="92.0684" x2="166.806" xlink:href="#b" y1="142.129" y2="147.595"/><linearGradient id="f" gradientUnits="userSpaceOnUse" x1="81" x2="111" y1="144" y2="163.5"><stop offset="0" stop-color="#fff" stop-opacity=".6"/><stop offset="1" stop-color="#fff" stop-opacity="0"/></linearGradient><linearGradient id="g" gradientUnits="userSpaceOnUse" x1="131.5" x2="131.5" y1="113" y2="128"><stop offset="0" stop-color="#952cff"/><stop offset="1" stop-color="#952cff" stop-opacity="0"/></linearGradient><linearGradient id="h" gradientUnits="userSpaceOnUse" x1="112.032" x2="147.003" xlink:href="#b" y1="97.2628" y2="99.0678"/><linearGradient id="i" gradientUnits="userSpaceOnUse" x1="118.992" x2="118.992" y1="73" y2="122.436"><stop offset="0" stop-color="#fff"/><stop offset="1" stop-color="#fff" stop-opacity="0"/></linearGradient><linearGradient id="j" gradientUnits="userSpaceOnUse" x1="125" x2="136" y1="136.5" y2="160"><stop offset="0" stop-color="#952cff"/><stop offset="1" stop-color="#952cff" stop-opacity=".2"/></linearGradient><linearGradient id="k"><stop offset="0" stop-color="#fff"/><stop offset="1" stop-color="#fff" stop-opacity=".5"/></linearGradient><linearGradient id="l" gradientUnits="userSpaceOnUse" x1="191" x2="191" xlink:href="#k" y1="145" y2="169"/><linearGradient id="m" gradientUnits="userSpaceOnUse" x1="70" x2="70" xlink:href="#k" y1="97" y2="113"/><linearGradient id="n" gradientUnits="userSpaceOnUse" x1="74.0219" x2="97.9781" xlink:href="#b" y1="84.2758" y2="85.7242"/><g filter="url(#a)" opacity=".7"><circle cx="110" cy="150" fill="url(#c)" r="85"/></g><ellipse cx="129.5" cy="180.5" fill="url(#d)" opacity=".5" rx="91.5" ry="23.5"/><rect fill="url(#e)" height="62" rx="4" width="75" x="92" y="113"/><path clip-rule="evenodd" d="m96 113h11c7.18 0 13 5.82 13 13v13.979.021 3.023c-2.846 2.583-4.643 6.319-4.643 10.477 0 3.488 1.263 6.681 3.356 9.147-2.102 4.351-6.557 7.353-11.713 7.353h-15v-53c0-2.209 1.7909-4 4-4z" fill="url(#f)" fill-rule="evenodd"/><path clip-rule="evenodd" d="m154 113h-10v10c0 2.761 2.239 5 5 5s5-2.239 5-5zm-35 0v10c0 2.761-2.239 5-5 5s-5-2.239-5-5v-10z" fill="url(#g)" fill-opacity=".44" fill-rule="evenodd"/><path d="m147 119v-23.5c0-9.665-7.835-17.5-17.5-17.5-9.665 0-17.5 7.835-17.5 17.5v23.5" stroke="url(#h)" stroke-linecap="round" stroke-width="10"/><path clip-rule="evenodd" d="m130.983 73.0481c-12.272.7818-21.983 10.9827-21.983 23.4518v23.5001c0 .884-.23 1.715-.632 2.436-.848-.896-1.368-2.105-1.368-3.436v-23.5c0-12.4264 10.074-22.5 22.5-22.5.498 0 .993.0162 1.483.0481z" fill="url(#i)" fill-rule="evenodd" opacity=".5"/><path clip-rule="evenodd" d="m124.5 145.253c-2.784 1.691-4.643 4.752-4.643 8.247 0 5.326 4.317 9.643 9.643 9.643s9.643-4.317 9.643-9.643c0-3.495-1.86-6.556-4.643-8.247v-5.253c0-2.761-2.239-5-5-5s-5 2.239-5 5z" fill="url(#j)" fill-opacity=".44" fill-rule="evenodd"/><path d="m191 145 2.121 9.879 9.879 2.121-9.879 2.121-2.121 9.879-2.121-9.879-9.879-2.121 9.879-2.121z" fill="url(#l)"/><path d="m70 97 1.4142 6.586 6.5858 1.414-6.5858 1.414-1.4142 6.586-1.4142-6.586-6.5858-1.414 6.5858-1.414z" fill="url(#m)"/><path d="m86 73 2.1213 9.8787 9.8787 2.1213-9.8787 2.1213-2.1213 9.8787-2.1213-9.8787-9.8787-2.1213 9.8787-2.1213z" fill="url(#n)"/></svg>