<svg fill="none" height="246" viewBox="0 0 296 246" width="296" xmlns="http://www.w3.org/2000/svg" xmlns:xlink="http://www.w3.org/1999/xlink"><filter id="a" color-interpolation-filters="sRGB" filterUnits="userSpaceOnUse" height="682" width="682" x="-231" y="-191"><feFlood flood-opacity="0" result="BackgroundImageFix"/><feBlend in="SourceGraphic" in2="BackgroundImageFix" mode="normal" result="shape"/><feGaussianBlur result="effect1_foregroundBlur_244_22030" stdDeviation="128"/></filter><linearGradient id="b"><stop offset=".15" stop-color="#2aabee"/><stop offset="1" stop-color="#0ccfcf"/></linearGradient><linearGradient id="c" gradientUnits="userSpaceOnUse" x1="25.1549" x2="194.845" xlink:href="#b" y1="144.87" y2="155.13"/><linearGradient id="d" gradientUnits="userSpaceOnUse" x1="56.1668" x2="229.874" xlink:href="#b" y1="179.082" y2="219.975"/><linearGradient id="e"><stop offset="0" stop-color="#2c41ff"/><stop offset=".593089" stop-color="#2aabee"/><stop offset="1" stop-color="#0ccfcf"/></linearGradient><linearGradient id="f" gradientUnits="userSpaceOnUse" x1="231.55" x2="104.494" xlink:href="#e" y1="178.28" y2="121.256"/><linearGradient id="g" gradientUnits="userSpaceOnUse" x1="243.44" x2="138.034" xlink:href="#b" y1="177.05" y2="112.84"/><linearGradient id="h" gradientUnits="userSpaceOnUse" x1="99.6145" x2="189.036" xlink:href="#b" y1="146.664" y2="164.12"/><linearGradient id="i" gradientUnits="userSpaceOnUse" x1="234.83" x2="107.774" xlink:href="#e" y1="166.8" y2="109.776"/><linearGradient id="j" gradientUnits="userSpaceOnUse" x1="246.72" x2="141.314" xlink:href="#b" y1="165.57" y2="101.36"/><linearGradient id="k" gradientUnits="userSpaceOnUse" x1="102.895" x2="192.316" xlink:href="#b" y1="135.184" y2="152.64"/><linearGradient id="l" gradientUnits="userSpaceOnUse" x1="231.55" x2="104.494" xlink:href="#e" y1="156.96" y2="99.9359"/><linearGradient id="m" gradientUnits="userSpaceOnUse" x1="243.44" x2="138.034" xlink:href="#b" y1="155.73" y2="91.5197"/><linearGradient id="n" gradientUnits="userSpaceOnUse" x1="99.6145" x2="189.036" xlink:href="#b" y1="125.344" y2="142.8"/><linearGradient id="o" gradientUnits="userSpaceOnUse" x1="233.19" x2="106.134" xlink:href="#e" y1="143.02" y2="85.9959"/><linearGradient id="p" gradientUnits="userSpaceOnUse" x1="245.08" x2="139.674" xlink:href="#b" y1="141.79" y2="77.5797"/><linearGradient id="q" gradientUnits="userSpaceOnUse" x1="101.254" x2="190.676" xlink:href="#b" y1="111.404" y2="128.86"/><linearGradient id="r"><stop offset="0" stop-color="#fff"/><stop offset="1" stop-color="#fff" stop-opacity=".5"/></linearGradient><linearGradient id="s" gradientUnits="userSpaceOnUse" x1="85" x2="85" xlink:href="#r" y1="86" y2="110"/><linearGradient id="t" gradientUnits="userSpaceOnUse" x1="212" x2="212" xlink:href="#r" y1="86" y2="102"/><linearGradient id="u" gradientUnits="userSpaceOnUse" x1="180.022" x2="203.978" xlink:href="#b" y1="75.2758" y2="76.7242"/><g filter="url(#a)" opacity=".7"><circle cx="110" cy="150" fill="url(#c)" r="85"/></g><ellipse cx="147.5" cy="180.5" fill="url(#d)" opacity=".5" rx="91.5" ry="23.5"/><path d="m145.86 175c29.663 0 53.71-8.627 53.71-19.27v-8.61h-107.42v8.61c0 10.643 24.047 19.27 53.71 19.27z" fill="url(#f)"/><ellipse cx="145.86" cy="147.53" fill="url(#g)" rx="53.71" ry="19.27"/><ellipse cx="145.86" cy="147.53" fill="url(#h)" rx="46.33" ry="14.35"/><path d="m191.19 147.53c0 1.511-.991 3.138-3.232 4.779-2.219 1.625-5.495 3.131-9.634 4.413-8.264 2.559-19.742 4.158-32.464 4.158s-24.2-1.599-32.464-4.158c-4.139-1.282-7.415-2.788-9.634-4.413-2.241-1.641-3.232-3.268-3.232-4.779s.991-3.138 3.232-4.779c2.219-1.625 5.495-3.131 9.634-4.413 8.264-2.559 19.742-4.158 32.464-4.158s24.2 1.599 32.464 4.158c4.139 1.282 7.415 2.788 9.634 4.413 2.241 1.641 3.232 3.268 3.232 4.779z" stroke="#fff" stroke-opacity=".05" stroke-width="2"/><path d="m149.14 163.52c29.663 0 53.71-8.627 53.71-19.27v-8.61h-107.4199v8.61c0 10.643 24.0469 19.27 53.7099 19.27z" fill="url(#i)"/><ellipse cx="149.14" cy="136.05" fill="url(#j)" rx="53.71" ry="19.27"/><ellipse cx="149.14" cy="136.05" fill="url(#k)" rx="46.33" ry="14.35"/><path d="m194.47 136.05c0 1.511-.991 3.138-3.232 4.779-2.219 1.625-5.495 3.131-9.634 4.413-8.264 2.56-19.742 4.158-32.464 4.158s-24.2-1.598-32.464-4.158c-4.139-1.282-7.415-2.788-9.634-4.413-2.241-1.641-3.232-3.268-3.232-4.779s.991-3.138 3.232-4.779c2.219-1.625 5.495-3.131 9.634-4.413 8.264-2.559 19.742-4.158 32.464-4.158s24.2 1.599 32.464 4.158c4.139 1.282 7.415 2.788 9.634 4.413 2.241 1.641 3.232 3.268 3.232 4.779z" stroke="#fff" stroke-opacity=".05" stroke-width="2"/><path d="m145.86 153.68c29.663 0 53.71-8.627 53.71-19.27v-8.61h-107.42v8.61c0 10.643 24.047 19.27 53.71 19.27z" fill="url(#l)"/><ellipse cx="145.86" cy="126.21" fill="url(#m)" rx="53.71" ry="19.27"/><ellipse cx="145.86" cy="126.21" fill="url(#n)" rx="46.33" ry="14.35"/><path d="m191.19 126.21c0 1.511-.991 3.138-3.232 4.779-2.219 1.625-5.495 3.131-9.634 4.413-8.264 2.559-19.742 4.158-32.464 4.158s-24.2-1.599-32.464-4.158c-4.139-1.282-7.415-2.788-9.634-4.413-2.241-1.641-3.232-3.268-3.232-4.779s.991-3.138 3.232-4.779c2.219-1.625 5.495-3.131 9.634-4.413 8.264-2.56 19.742-4.158 32.464-4.158s24.2 1.598 32.464 4.158c4.139 1.282 7.415 2.788 9.634 4.413 2.241 1.641 3.232 3.268 3.232 4.779z" stroke="#fff" stroke-opacity=".05" stroke-width="2"/><path d="m147.5 139.74c29.663 0 53.71-8.627 53.71-19.27v-8.61h-107.42v8.61c0 10.643 24.047 19.27 53.71 19.27z" fill="url(#o)"/><ellipse cx="147.5" cy="112.27" fill="url(#p)" rx="53.71" ry="19.27"/><ellipse cx="147.5" cy="112.27" fill="url(#q)" rx="46.33" ry="14.35"/><g stroke="#fff"><path d="m192.83 112.27c0 1.511-.991 3.138-3.232 4.779-2.219 1.625-5.495 3.131-9.634 4.413-8.264 2.559-19.742 4.158-32.464 4.158s-24.2-1.599-32.464-4.158c-4.139-1.282-7.415-2.788-9.634-4.413-2.241-1.641-3.232-3.268-3.232-4.779s.991-3.138 3.232-4.779c2.219-1.625 5.495-3.131 9.634-4.413 8.264-2.56 19.742-4.158 32.464-4.158s24.2 1.598 32.464 4.158c4.139 1.282 7.415 2.788 9.634 4.413 2.241 1.641 3.232 3.268 3.232 4.779z" stroke-opacity=".05" stroke-width="2"/><path d="m149.405 106.94 24.745 5.233-24.745 5.427m0-10.66-7.698 5.233 7.698 5.427m0-10.66 8.798 5.33-8.798 5.33" stroke-linecap="round" stroke-linejoin="round" stroke-opacity=".48"/><path d="m144.024 117.6-23.174-5.233 23.174-5.427-7.21 5.33z" stroke-linecap="round" stroke-linejoin="round" stroke-opacity=".48"/></g><path d="m85 86 2.1213 9.8787 9.8787 2.1213-9.8787 2.121-2.1213 9.879-2.1213-9.879-9.8787-2.121 9.8787-2.1213z" fill="url(#s)"/><path d="m212 86 1.414 6.5858 6.586 1.4142-6.586 1.4142-1.414 6.5858-1.414-6.5858-6.586-1.4142 6.586-1.4142z" fill="url(#t)"/><path d="m192 64 2.121 9.8787 9.879 2.1213-9.879 2.1213-2.121 9.8787-2.121-9.8787-9.879-2.1213 9.879-2.1213z" fill="url(#u)"/></svg>